<svg height="225.779898" viewBox="2.6 1.73 89.38 45.55" width="442.909226" xmlns="http://www.w3.org/2000/svg"><g transform="translate(2.60101 1.73394)"><path d="m4.545 27.124 4.547 4.546 2.271-2.272 4.546 4.545 4.547-4.545v-2.982l-4.547 4.548-4.546-4.548-2.27 2.27-4.548-4.541z"/><path d="m13.637 9.092-4.544-4.547-.002 2.984 4.546 4.545 4.546-4.548v-2.981z"/><path d="m13.637 12.074-9.091 9.093-4.546-4.545v2.976l4.546 4.546 9.091-9.092 3.055 3.057 1.491-1.487z"/><path d="m20.456 23.436-4.546-4.545v2.979l4.546 4.546 9.091-9.09v-2.982z"/><g fill="#fcb034"><path d="m20.456 23.436 9.091-9.092-4.546-4.544-2.273 2.274-4.545-4.548-4.546 4.548 4.546 4.548-1.491 1.487-3.055-3.056-9.092 9.091 4.549 4.542 2.27-2.27 4.546 4.548 4.546-4.548-4.546-4.546v-2.979z"/><path d="m3.604 7.919h6.428v12.858h-6.428z" transform="matrix(.7072 .707 -.707 .7072 12.1411 -.6194)"/><path d="m10.424 1.331h6.427v6.428h-6.427z" transform="matrix(.707 .7072 -.7072 .707 7.2095 -8.3128)"/></g><path d="m40.647999 24.135h4.294v21.410999h-4.294z"/><path d="m68.381 24.136h-16.947v3.695h6.306v17.716h4.335v-17.716h6.306z"/><path d="m89.375 24.136h-16.95v3.695h6.308v17.716h4.333v-17.716h6.309z"/></g></svg>